@startuml
package controller {
    class AdmStaffController {
        +assignScholarshipTest()
    }
}

package repository {
    class DatabaseRepo {
        +storeScholarshipTestAssignment()
    }
}

package entity {
    class Test {
        +id: int
        +userId: int
        +type: String
        +date: Date
    }
}

AdmStaffController --> DatabaseRepo : uses
DatabaseRepo --> Test : stores
@enduml